<svg xmlns="http://www.w3.org/2000/svg" xmlns:xlink="http://www.w3.org/1999/xlink" viewBox="0 0 940.14 940.14"><defs><style>.cls-1{fill:#fff;stroke:#231f20;stroke-miterlimit:10;stroke-width:7px;opacity:0.06;}.cls-2{fill:#828282;}.cls-3{fill:url(#New_Gradient_Swatch_2);}.cls-4{fill:url(#New_Gradient_Swatch_2-2);}</style><linearGradient id="New_Gradient_Swatch_2" x1="558.79" y1="394.45" x2="636.33" y2="394.45" gradientTransform="translate(888.12 -61.93) rotate(90)" gradientUnits="userSpaceOnUse"><stop offset="0" stop-color="#8a5bff"/><stop offset="1" stop-color="#e68dff"/></linearGradient><linearGradient id="New_Gradient_Swatch_2-2" x1="167.25" y1="447.07" x2="896.76" y2="447.07" xlink:href="#New_Gradient_Swatch_2"/></defs><g id="Layer_2" data-name="Layer 2"><g id="Layer_2-2" data-name="Layer 2"><circle class="cls-1" cx="470.07" cy="470.07" r="466.57"/></g><g id="_ÎÓÈ_1" data-name="—ÎÓÈ_1"><path class="cls-2" d="M323.12,414.78a12.81,12.81,0,0,1,18.4-11.51,92.68,92.68,0,0,0,12.85,5.11l259.55,81.95a18.18,18.18,0,0,1,4.57,2.19L782.92,603.37a44.2,44.2,0,0,0,63.2-15c6.75-12,8-24.5,4.18-36.37a43.71,43.71,0,0,0-23.49-26.54L646.92,442.25a18.2,18.2,0,0,1-4.33-2.83L438.12,259.8A93.3,93.3,0,0,0,345.47,242a12.8,12.8,0,1,1-8.55-24.13A119,119,0,0,1,455,240.57L658.67,419.48l178.89,82.79A69.8,69.8,0,0,1,869,599.89s-.64,1.13-.64,1.15a69.8,69.8,0,0,1-99.8,23.56L605.17,514.41,346.66,432.79a119.9,119.9,0,0,1-16.33-6.49A12.8,12.8,0,0,1,323.12,414.78Z"/><path class="cls-2" d="M317.72,339.17A12.8,12.8,0,0,1,338.29,329a251,251,0,0,0,46.84,28L617.85,464.13l4.37-7.76L410.12,312.7c-24.79-16.8-52.79-29.3-76.8-34.3a12.8,12.8,0,1,1,5.21-25.06c27.17,5.66,58.49,19.56,86,38.16L645.74,441.37c5.52,3.75,7.86,11.45,4.59,17.27l-16,28.36a12.8,12.8,0,0,1-17.14,5L374.43,380.29a276.32,276.32,0,0,1-51.69-31A12.78,12.78,0,0,1,317.72,339.17Z"/><path class="cls-3" d="M541.49,496.86c-12.36,28.15-29.31,46.47-48.27,50.93-18.52,4.36-33.7-6.25-43.17-15.92a74.68,74.68,0,0,1-7.57-9.16,12.8,12.8,0,1,0-20.93,14.75,99.61,99.61,0,0,0,10.22,12.33c19.89,20.31,43.8,28.45,67.3,22.92,26.67-6.27,53.31-32.2,69.06-67"/><path class="cls-4" d="M317.71,823.74l-.19-224.89c.14-1.66.21-3.09.2-4.15-.58-16.52,0-47.91,1.5-85.53C323,414.52,332.6,280.41,344.3,244.28c19.76-61,54.07-102.74,91.79-111.61,25.49-6,51.16,3.29,74.24,26.84,25.05,25.58,44.85,101.67,51.37,169.09l25,22c-4.93-77.86-24.66-174.82-58.12-209-29.26-29.87-64.2-41.89-98.39-33.85-47.21,11.1-87.41,58-110.28,128.64-16.29,50.3-25.35,275-24.53,351.36a9.23,9.23,0,0,0-.05,1v235a11.07,11.07,0,0,0,11.08,11.07h.19A11.08,11.08,0,0,0,317.71,823.74Z"/></g></g></svg>